<?xml version="1.0" encoding="UTF-8"?>
<svg id="Layer_1" data-name="Layer 1" xmlns="http://www.w3.org/2000/svg" viewBox="0 0 377.85 213.97">
  <defs>
    <style>
      .cls-1 {
        fill: #fff;
      }

      .cls-1, .cls-2 {
        stroke-width: 0px;
      }

      .cls-2 {
        fill: none;
      }
    </style>
  </defs>
  <path class="cls-2" d="M374.48,0c2.86,0,3.38.79,3.38,3.5-.08,68.96-.08,137.91,0,206.87,0,2.74-.56,3.6-3.44,3.6-123.82-.08-247.63-.07-371.45,0-2.49,0-2.95-.67-2.95-3.04C.08,141.6.09,72.27,0,2.94,0,.38.74.02,3.02.02,64.98.09,312.61.1,374.48,0Z"/>
  <path class="cls-2" d="M188.91,200.19c-56.7,0-113.4-.02-170.1.06-2.55,0-3.32-.56-3.32-3.51.09-59.93.09-119.86,0-179.8,0-2.65.62-3.24,3.01-3.24,113.59.07,227.18.07,340.78,0,2.36,0,3.04.53,3.04,3.22-.08,60.04-.08,120.07,0,180.11,0,2.69-.67,3.21-3.02,3.2-56.8-.08-113.59-.06-170.39-.06Z"/>
  <g>
    <path class="cls-1" d="M128.45,56.48c16.89,0,33.77,0,50.66-.02,1.29,0,2.06-.05,2.14,1.76.23,5.23.15,10.45.09,15.67-.08,7.32-.1,14.63,0,21.94.08,5.36-.17,10.72-.13,16.08.01,1.51-.57,1.63-1.8,1.63-13.4-.04-26.79-.02-40.19-.02-14.23,0-28.47.05-42.7-.06-1.94-.01-2.24.57-2.2,2.31.11,5.37.16,10.74-.02,16.1-.07,1.99.63,2.18,2.33,2.18,27.28-.05,54.56-.04,81.85-.04q2.7,0,2.7,2.76c0,4.74-.05,9.48.03,14.22.02,1.38-.21,1.88-1.76,1.88-34.05-.05-68.1-.05-102.15,0-1.35,0-1.72-.33-1.72-1.7.05-18.26.06-36.53-.01-54.79,0-1.64.64-1.7,1.93-1.7,27.49.03,54.98,0,82.47.08,2.27,0,2.71-.66,2.65-2.75-.15-4.94-.13-9.9,0-14.85.04-1.71-.5-2.06-2.12-2.06-27.56.05-55.12.01-82.68.08-1.84,0-2.31-.43-2.25-2.26.14-4.81.12-9.62.01-14.43-.03-1.59.34-2.07,2.02-2.06,16.95.07,33.91.04,50.87.04Z"/>
    <path class="cls-1" d="M248.82,154.1c-17.09,0-34.19-.03-51.28.04-1.69,0-2.22-.32-2.19-2.12.13-9.89.13-19.78.11-29.68,0-1.35.33-1.77,1.73-1.74,5.16.09,10.33.09,15.49,0,1.33-.02,1.62.38,1.59,1.63-.08,3.76.02,7.53-.06,11.29-.02,1.27.19,1.79,1.66,1.79,21.98-.05,43.95-.05,65.93,0,1.39,0,1.55-.47,1.55-1.67-.03-18.82-.06-37.64.03-56.45,0-1.87-.85-1.74-2.1-1.74-27.21.02-54.42-.01-81.63.07-2.03,0-2.53-.48-2.46-2.48.16-4.87.09-9.76.03-14.64-.01-1.23.12-1.8,1.63-1.8,33.91.05,67.81.05,101.72,0,1.7,0,1.67.73,1.67,1.97-.06,19.51-.11,39.02-.12,58.54,0,11.71.03,23.41.14,35.12.02,1.59-.4,1.93-1.94,1.92-17.16-.06-34.32-.04-51.49-.04Z"/>
  </g>
</svg>
